<svg width="14" height="12" viewBox="0 0 14 12" fill="none" xmlns="http://www.w3.org/2000/svg">
<path d="M13.6631 6.05762C13.6631 6.27181 13.5833 6.45866 13.4238 6.61816L8.91211 11.1162C8.7526 11.2712 8.57259 11.3486 8.37207 11.3486C8.16243 11.3486 7.98698 11.2803 7.8457 11.1436C7.70898 11.0068 7.64062 10.8359 7.64062 10.6309C7.64062 10.526 7.65885 10.4281 7.69531 10.3369C7.73633 10.2458 7.79102 10.166 7.85938 10.0977L9.39062 8.55273L11.9404 6.22852L12.1797 6.66602L9.80762 6.80273H1.50195C1.27409 6.80273 1.08952 6.73438 0.948242 6.59766C0.811523 6.45638 0.743164 6.27637 0.743164 6.05762C0.743164 5.83431 0.811523 5.6543 0.948242 5.51758C1.08952 5.3763 1.27409 5.30566 1.50195 5.30566H9.80762L12.1797 5.44922L11.9404 5.89355L9.39062 3.5625L7.85938 2.01074C7.79102 1.94238 7.73633 1.86491 7.69531 1.77832C7.65885 1.68717 7.64062 1.58691 7.64062 1.47754C7.64062 1.27246 7.70898 1.10156 7.8457 0.964844C7.98698 0.828125 8.16243 0.759766 8.37207 0.759766C8.47233 0.759766 8.56803 0.780273 8.65918 0.821289C8.75033 0.862305 8.83691 0.923828 8.91895 1.00586L13.4238 5.49707C13.5833 5.65658 13.6631 5.84342 13.6631 6.05762Z" fill="#C1CDDA"/>
</svg>
