<svg width="10" height="10" viewBox="0 0 10 10" fill="none" xmlns="http://www.w3.org/2000/svg">
<path d="M9.5 7.43164C9.5 7.8125 9.20703 8.10547 8.86133 8.10547C8.50977 8.10547 8.22852 7.80078 8.22852 7.44922V5.26367L8.32812 2.83789L7.37891 3.9043L1.78906 9.49414C1.6543 9.62891 1.49609 9.69336 1.33203 9.69336C0.980469 9.69336 0.669922 9.37695 0.669922 9.03711C0.669922 8.87305 0.740234 8.70898 0.875 8.57422L6.45898 2.98438L7.52539 2.04688L5 2.12891H2.91406C2.5625 2.12891 2.26367 1.84766 2.26367 1.50781C2.26367 1.16211 2.53906 0.869141 2.93164 0.869141H8.81445C9.23047 0.869141 9.5 1.14453 9.5 1.54883V7.43164Z" fill="#007AFF"/>
</svg>
