<svg width="11" height="15" viewBox="0 0 11 15" fill="none" xmlns="http://www.w3.org/2000/svg">
<path d="M1.74219 12.9297C0.921875 12.7832 0.494141 12.291 0.494141 11.4883V3.2207C0.494141 2.46484 0.904297 1.9668 1.56055 1.88477L7.57227 0.824219C9.04883 0.560547 9.93945 1.19922 9.93945 2.51172V3.5957C10.291 3.90625 10.4609 4.35156 10.4609 5.01953V12.2383C10.4609 13.6152 9.68164 14.3301 8.41016 14.1074L1.74219 12.9297ZM8.55664 3.04492C8.65039 3.05664 8.73828 3.07422 8.82617 3.09766V2.46484C8.82617 1.99023 8.48633 1.76172 7.93555 1.85547L4.80078 2.38281L8.55664 3.04492ZM2.07617 11.793L8.38672 12.9062C8.94336 13.0059 9.28906 12.7129 9.28906 12.1211V5.00195C9.28906 4.51562 9.00781 4.29297 8.47461 4.19922L2.19336 3.0918C1.86523 3.03906 1.66602 3.19141 1.66602 3.49023V11.2891C1.66602 11.5703 1.80078 11.7402 2.07617 11.793ZM3.10156 5.6875C2.88477 5.65234 2.76172 5.48828 2.76172 5.26562C2.76172 4.99609 2.97266 4.82031 3.26562 4.86719L7.61328 5.63477C7.8418 5.67578 7.96484 5.81055 7.96484 6.05078C7.96484 6.32617 7.76562 6.51367 7.47266 6.46094L3.10156 5.6875ZM3.10156 7.95508C2.88477 7.91406 2.76172 7.75586 2.76172 7.52734C2.76172 7.26367 2.97266 7.08203 3.26562 7.13477L7.61328 7.89648C7.8418 7.9375 7.96484 8.07227 7.96484 8.31836C7.96484 8.58789 7.76562 8.77539 7.47266 8.72852L3.10156 7.95508Z" fill="white"/>
</svg>
