<svg width="34" height="27" viewBox="0 0 34 27" fill="none" xmlns="http://www.w3.org/2000/svg">
<path d="M0.760742 5.14209C0.760742 2.33447 2.16455 0.869629 4.89893 0.869629H5.16748C5.53369 0.369141 6.11963 0.0395508 6.77881 0.0395508C7.87744 0.0395508 8.76855 0.942871 8.76855 2.0293C8.76855 3.11572 7.87744 4.01904 6.77881 4.01904C6.13184 4.01904 5.55811 3.70166 5.19189 3.21338H4.81348C3.67822 3.21338 3.10449 3.89697 3.10449 5.11768C3.10449 8.9751 6.77881 15.3838 10.0747 15.3838C13.3828 15.3838 17.0449 8.9751 17.0449 5.11768C17.0449 3.89697 16.4712 3.21338 15.3359 3.21338H14.9453C14.5791 3.70166 13.9932 4.01904 13.3462 4.01904C12.2598 4.01904 11.3564 3.11572 11.3564 2.0293C11.3564 0.942871 12.2598 0.0395508 13.3462 0.0395508C14.0054 0.0395508 14.6035 0.369141 14.9575 0.869629H15.2505C17.9849 0.869629 19.3887 2.33447 19.3887 5.14209C19.3887 9.97607 15.2627 16.7266 11.2344 17.6177C11.4053 22.0366 12.7847 24.4902 15.2139 24.4902C18.0337 24.4902 19.0591 21.9756 19.877 17.3003C20.7925 12.0269 22.5381 9.91504 25.6509 9.91504C28.8369 9.91504 30.5093 12.2954 30.9609 17.3247C32.6821 17.7886 33.9639 19.3511 33.9639 21.2065C33.9639 23.4526 32.1694 25.2471 29.9478 25.2471C27.7261 25.2471 25.9194 23.4526 25.9194 21.2065C25.9194 19.4487 27.0669 17.9473 28.6538 17.4102C28.4097 13.8701 27.4209 12.2588 25.6265 12.2588C23.9175 12.2588 22.8799 13.6016 22.1719 17.874C21.1953 23.8555 19.1934 26.8218 15.2871 26.8218C11.3564 26.8218 9.09814 23.5747 8.89062 17.6177C4.87451 16.7021 0.760742 9.96387 0.760742 5.14209ZM29.9478 23.1597C31.022 23.1597 31.8887 22.2808 31.8887 21.2065C31.8887 20.1323 31.022 19.2656 29.9478 19.2656C28.8735 19.2656 27.9946 20.1323 27.9946 21.2065C27.9946 22.2808 28.8735 23.1597 29.9478 23.1597Z" fill="#C1CDDA"/>
</svg>
