<svg width="30" height="30" viewBox="0 0 30 30" fill="none" xmlns="http://www.w3.org/2000/svg">
<path d="M7.96021 25.8677C5.71411 25.8677 4.6521 24.8057 4.6521 22.5596V19.9473C4.6521 19.7153 4.59106 19.5444 4.42017 19.3735L2.5769 17.5181C0.98999 15.9312 0.977783 14.4419 2.5769 12.855L4.42017 10.9995C4.59106 10.8286 4.6521 10.6577 4.6521 10.4258V7.81348C4.6521 5.54297 5.7019 4.50537 7.96021 4.50537H10.5725C10.8044 4.50537 10.9753 4.43213 11.1462 4.27344L13.0017 2.43018C14.5886 0.831055 16.0779 0.818848 17.6648 2.41797L19.5203 4.27344C19.6912 4.44434 19.8621 4.50537 20.1062 4.50537H22.7185C24.9646 4.50537 26.0144 5.56738 26.0144 7.81348V10.4258C26.0144 10.6577 26.0754 10.8164 26.2585 10.9995L28.1018 12.855C29.6887 14.4419 29.7009 15.9312 28.1018 17.5181L26.2585 19.3735C26.0876 19.5444 26.0144 19.7153 26.0144 19.9473V22.5596C26.0144 24.8057 24.9524 25.8677 22.7185 25.8677H20.1062C19.8621 25.8677 19.7034 25.9287 19.5203 26.0996L17.6648 27.9429C16.0779 29.5298 14.5886 29.542 13.0017 27.9429L11.1462 26.0996C10.9753 25.9287 10.8044 25.8677 10.5725 25.8677H7.96021ZM13.9783 21.2046C14.4421 21.2046 14.8328 20.9849 15.1013 20.5576L20.8264 11.6587C20.9973 11.3901 21.1438 11.085 21.1438 10.8042C21.1438 10.1572 20.5823 9.72998 19.9719 9.72998C19.5935 9.72998 19.2517 9.94971 18.9832 10.377L13.9417 18.4458L11.5857 15.4673C11.2683 15.0645 10.9753 14.9302 10.5969 14.9302C9.97437 14.9302 9.47388 15.4307 9.47388 16.0532C9.47388 16.3706 9.58374 16.6514 9.80347 16.9321L12.7942 20.5698C13.1482 21.0093 13.5144 21.2046 13.9783 21.2046Z" fill="#C1CDDA"/>
</svg>
