<svg width="34" height="33" viewBox="0 0 34 33" fill="none" xmlns="http://www.w3.org/2000/svg">
<path d="M6.84863 31.7793C6.16016 31.2666 6.01367 30.417 6.40918 29.2598L9.42676 20.3096L1.73633 14.7871C0.740234 14.084 0.330078 13.3076 0.608398 12.4873C0.886719 11.6816 1.64844 11.2861 2.86426 11.3008L12.2979 11.3594L15.1689 2.36523C15.5498 1.19336 16.1504 0.563477 17 0.563477C17.8643 0.563477 18.4648 1.19336 18.8311 2.36523L21.7021 11.3594L31.1357 11.3008C32.3516 11.2861 33.1279 11.6816 33.4062 12.4873C33.6846 13.3076 33.2598 14.084 32.2783 14.7871L24.5879 20.3096L27.5908 29.2598C27.9863 30.417 27.8398 31.2666 27.166 31.7793C26.4775 32.3066 25.6133 32.1309 24.6172 31.4131L17 25.8174L9.38281 31.4131C8.38672 32.1309 7.53711 32.3066 6.84863 31.7793Z" fill="#C1CDDA"/>
</svg>
