<svg width="13" height="15" viewBox="0 0 13 15" fill="none" xmlns="http://www.w3.org/2000/svg">
<path d="M8.25586 2.37988C7.76514 2.97314 6.94482 3.4126 6.29297 3.4126C6.2124 3.4126 6.13916 3.39795 6.09521 3.39062C6.08789 3.354 6.06592 3.24414 6.06592 3.12695C6.06592 2.37988 6.44678 1.63281 6.86426 1.16406C7.38428 0.548828 8.26318 0.0947266 8.99561 0.0654297C9.01025 0.145996 9.01758 0.248535 9.01758 0.351074C9.01758 1.09814 8.70264 1.83789 8.25586 2.37988ZM8.76855 3.56641C9.17871 3.56641 10.6655 3.61035 11.6396 5.00928C11.5518 5.0752 10.0796 5.91016 10.0796 7.77051C10.0796 9.9165 11.9546 10.6855 12.0132 10.7002C12.0059 10.7515 11.7129 11.7402 11.0244 12.7583C10.4019 13.6445 9.75 14.5454 8.76855 14.5454C7.77979 14.5454 7.52344 13.9668 6.39551 13.9668C5.28223 13.9668 4.88672 14.5601 3.99316 14.5601C3.08496 14.5601 2.45508 13.7324 1.7373 12.7217C0.89502 11.5278 0.221191 9.6748 0.221191 7.91699C0.221191 5.10449 2.05225 3.61035 3.86133 3.61035C4.81348 3.61035 5.60449 4.23291 6.2124 4.23291C6.78369 4.23291 7.67725 3.56641 8.76855 3.56641Z" fill="black"/>
</svg>
