<svg width="10" height="10" viewBox="0 0 10 10" fill="none" xmlns="http://www.w3.org/2000/svg">
<path d="M9.32422 7.43164C9.32422 7.8125 9.03125 8.10547 8.68555 8.10547C8.33398 8.10547 8.05273 7.80078 8.05273 7.44922V5.26367L8.15234 2.83789L7.20312 3.9043L1.61328 9.49414C1.47852 9.62891 1.32031 9.69336 1.15625 9.69336C0.804688 9.69336 0.494141 9.37695 0.494141 9.03711C0.494141 8.87305 0.564453 8.70898 0.699219 8.57422L6.2832 2.98438L7.34961 2.04688L4.82422 2.12891H2.73828C2.38672 2.12891 2.08789 1.84766 2.08789 1.50781C2.08789 1.16211 2.36328 0.869141 2.75586 0.869141H8.63867C9.05469 0.869141 9.32422 1.14453 9.32422 1.54883V7.43164Z" fill="white"/>
</svg>
