<svg width="25" height="25" viewBox="0 0 25 25" fill="none" xmlns="http://www.w3.org/2000/svg">
<path d="M12.5514 22.7434C7.06393 22.7434 2.61548 18.2949 2.61548 12.8075C2.61548 7.32003 7.06393 2.87158 12.5514 2.87158C18.0388 2.87158 22.4873 7.32003 22.4873 12.8075C22.4873 18.2949 18.0388 22.7434 12.5514 22.7434ZM12.5514 20.7562C16.9414 20.7562 20.5001 17.1975 20.5001 12.8075C20.5001 8.41752 16.9414 4.85876 12.5514 4.85876C8.16142 4.85876 4.60266 8.41752 4.60266 12.8075C4.60266 17.1975 8.16142 20.7562 12.5514 20.7562ZM7.58343 17.7754C7.58343 15.0317 9.80766 12.8075 12.5514 12.8075C15.2951 12.8075 17.5193 15.0317 17.5193 17.7754H15.5321C15.5321 16.1291 14.1977 14.7947 12.5514 14.7947C10.9051 14.7947 9.57061 16.1291 9.57061 17.7754H7.58343ZM8.57702 11.8139C7.7539 11.8139 7.08663 11.1466 7.08663 10.3235C7.08663 9.50039 7.7539 8.83312 8.57702 8.83312C9.40014 8.83312 10.0674 9.50039 10.0674 10.3235C10.0674 11.1466 9.40014 11.8139 8.57702 11.8139ZM16.5257 11.8139C15.7026 11.8139 15.0354 11.1466 15.0354 10.3235C15.0354 9.50039 15.7026 8.83312 16.5257 8.83312C17.3488 8.83312 18.0161 9.50039 18.0161 10.3235C18.0161 11.1466 17.3488 11.8139 16.5257 11.8139Z" fill="#D32525"/>
</svg>
