<svg width="9" height="10" viewBox="0 0 9 10" fill="none" xmlns="http://www.w3.org/2000/svg">
<path d="M8.82422 7.43164C8.82422 7.8125 8.53125 8.10547 8.18555 8.10547C7.83398 8.10547 7.55273 7.80078 7.55273 7.44922V5.26367L7.65234 2.83789L6.70312 3.9043L1.11328 9.49414C0.978516 9.62891 0.820312 9.69336 0.65625 9.69336C0.304688 9.69336 -0.00585938 9.37695 -0.00585938 9.03711C-0.00585938 8.87305 0.0644531 8.70898 0.199219 8.57422L5.7832 2.98438L6.84961 2.04688L4.32422 2.12891H2.23828C1.88672 2.12891 1.58789 1.84766 1.58789 1.50781C1.58789 1.16211 1.86328 0.869141 2.25586 0.869141H8.13867C8.55469 0.869141 8.82422 1.14453 8.82422 1.54883V7.43164Z" fill="#02152A"/>
</svg>
