<svg width="24" height="25" viewBox="0 0 24 25" fill="none" xmlns="http://www.w3.org/2000/svg">
<g id="emotion-normal-line">
<path id="Vector" d="M12.0001 22.7434C6.51266 22.7434 2.06421 18.2949 2.06421 12.8075C2.06421 7.32003 6.51266 2.87158 12.0001 2.87158C17.4875 2.87158 21.936 7.32003 21.936 12.8075C21.936 18.2949 17.4875 22.7434 12.0001 22.7434ZM12.0001 20.7562C16.3901 20.7562 19.9488 17.1975 19.9488 12.8075C19.9488 8.41752 16.3901 4.85876 12.0001 4.85876C7.61015 4.85876 4.05139 8.41752 4.05139 12.8075C4.05139 17.1975 7.61015 20.7562 12.0001 20.7562ZM8.02575 14.7947H15.9745V16.7818H8.02575V14.7947ZM8.02575 11.8139C7.20263 11.8139 6.53536 11.1466 6.53536 10.3235C6.53536 9.50039 7.20263 8.83312 8.02575 8.83312C8.84887 8.83312 9.51613 9.50039 9.51613 10.3235C9.51613 11.1466 8.84887 11.8139 8.02575 11.8139ZM15.9745 11.8139C15.1514 11.8139 14.4841 11.1466 14.4841 10.3235C14.4841 9.50039 15.1514 8.83312 15.9745 8.83312C16.7976 8.83312 17.4649 9.50039 17.4649 10.3235C17.4649 11.1466 16.7976 11.8139 15.9745 11.8139Z" fill="#F3C61D"/>
</g>
</svg>
