<svg width="16" height="17" viewBox="0 0 16 17" fill="none" xmlns="http://www.w3.org/2000/svg">
<g id="Android logo" clip-path="url(#clip0_1186_611)">
<path id="Vector" d="M2.22835 5.48581C1.953 5.48581 1.71938 5.58182 1.52735 5.77386C1.33531 5.9659 1.23926 6.19634 1.23926 6.4653V10.5949C1.23926 10.8706 1.33528 11.104 1.52735 11.296C1.71938 11.4881 1.953 11.5841 2.22835 11.5841C2.50349 11.5841 2.7357 11.4881 2.92476 11.296C3.11345 11.104 3.20805 10.8706 3.20805 10.5949V6.4653C3.20805 6.19632 3.11203 5.9659 2.91996 5.77386C2.72789 5.58182 2.49731 5.48581 2.22835 5.48581ZM10.1803 1.77869L10.8622 0.520812C10.907 0.437535 10.891 0.373676 10.8143 0.328773C10.731 0.290053 10.667 0.309673 10.6223 0.386246L9.93084 1.65418C9.32245 1.38519 8.67897 1.25045 8.00042 1.25045C7.32173 1.25045 6.67819 1.38522 6.07003 1.65418L5.37859 0.386246C5.33366 0.309673 5.26966 0.290226 5.18655 0.328773C5.10963 0.373879 5.09371 0.437535 5.13864 0.520812L5.82055 1.77869C5.12911 2.1313 4.57842 2.62238 4.16868 3.25299C3.75894 3.88396 3.55399 4.57346 3.55399 5.32272H12.4372C12.4372 4.57363 12.2322 3.8841 11.8225 3.25299C11.4127 2.62238 10.8652 2.1313 10.1803 1.77869ZM6.23803 3.60829C6.16429 3.68221 6.07621 3.71899 5.97384 3.71899C5.87126 3.71899 5.78498 3.68221 5.71459 3.60829C5.6442 3.53473 5.609 3.447 5.609 3.34428C5.609 3.2419 5.6442 3.154 5.71459 3.08026C5.78498 3.00669 5.87146 2.96991 5.97384 2.96991C6.07621 2.96991 6.16429 3.00669 6.23803 3.08026C6.3116 3.15417 6.34855 3.2419 6.34855 3.34428C6.34835 3.44683 6.31142 3.53473 6.23803 3.60829ZM10.2859 3.60829C10.2153 3.68221 10.1289 3.71899 10.0267 3.71899C9.92405 3.71899 9.83601 3.68221 9.76241 3.60829C9.6887 3.53473 9.65191 3.447 9.65191 3.34428C9.65191 3.2419 9.6887 3.154 9.76241 3.08026C9.83601 3.00669 9.92405 2.96991 10.0267 2.96991C10.129 2.96991 10.2153 3.00669 10.2859 3.08026C10.3563 3.15417 10.3915 3.2419 10.3915 3.34428C10.3915 3.44683 10.3563 3.53473 10.2859 3.60829ZM3.59213 12.0642C3.59213 12.359 3.69451 12.6086 3.89929 12.8133C4.10424 13.0181 4.35378 13.1205 4.64837 13.1205H5.35909L5.36882 15.3008C5.36882 15.5761 5.46484 15.8099 5.65688 16.002C5.84892 16.194 6.07954 16.2901 6.34832 16.2901C6.6235 16.2901 6.85726 16.194 7.04933 16.002C7.2414 15.8099 7.33742 15.5761 7.33742 15.3008V13.1207H8.66268V15.3008C8.66268 15.5761 8.75867 15.8099 8.95074 16.002C9.1428 16.194 9.37637 16.2901 9.65174 16.2901C9.92691 16.2901 10.1607 16.194 10.3527 16.002C10.5448 15.8099 10.6408 15.5761 10.6408 15.3008V13.1207H11.3611C11.6492 13.1207 11.8955 13.0183 12.1007 12.8135C12.3054 12.6087 12.4078 12.3592 12.4078 12.0644V5.66811H3.59213V12.0642ZM13.7721 5.48581C13.5031 5.48581 13.2727 5.58041 13.0806 5.7691C12.8886 5.95813 12.7926 6.19033 12.7926 6.4653V10.5949C12.7926 10.8706 12.8886 11.104 13.0806 11.296C13.2727 11.4881 13.5033 11.5841 13.7721 11.5841C14.0473 11.5841 14.2811 11.4881 14.4731 11.296C14.6652 11.104 14.7612 10.8706 14.7612 10.5949V6.4653C14.7612 6.19031 14.6652 5.95813 14.4731 5.7691C14.2811 5.58041 14.0473 5.48581 13.7721 5.48581Z" fill="white"/>
</g>
<defs>
<clipPath id="clip0_1186_611">
<rect width="16" height="16" fill="white" transform="translate(0 0.290039)"/>
</clipPath>
</defs>
</svg>
