<svg width="34" height="30" viewBox="0 0 34 30" fill="none" xmlns="http://www.w3.org/2000/svg">
<path d="M32.271 6.44922C33.1133 6.82764 33.5527 7.52344 33.5527 8.24365C33.5527 8.96387 33.1133 9.64746 32.271 10.0381L20.3447 15.4946C19.063 16.0806 18.0132 16.3491 16.9878 16.3247C15.9624 16.3491 14.9248 16.0928 13.6431 15.4946L8.34521 13.0776L15.7915 9.61084C16.1699 9.7207 16.5972 9.78174 17.0366 9.78174C18.4282 9.78174 19.7588 9.14697 19.7588 8.24365C19.7588 7.36475 18.416 6.72998 17.0366 6.72998C15.645 6.72998 14.29 7.36475 14.29 8.24365C14.29 8.3291 14.3145 8.41455 14.3633 8.48779L6.46533 12.1743L1.7168 10.0381C0.874512 9.64746 0.435059 8.96387 0.435059 8.24365C0.435059 7.52344 0.874512 6.82764 1.7168 6.44922L13.6431 0.992676C14.9248 0.418945 15.9624 0.150391 16.9878 0.162598C18.0132 0.150391 19.063 0.418945 20.3447 0.992676L32.271 6.44922ZM8.30859 15.0063L12.8984 17.1182C14.3755 17.7896 15.7183 18.1191 16.9878 18.1069C18.2695 18.1191 19.6123 17.7896 21.0894 17.1182L29.0483 13.4561V17.3379C29.0483 21.1343 24.1655 24.2227 16.9878 24.2227C13.4233 24.2227 10.4204 23.4536 8.30859 22.1841V15.0063ZM4.92725 13.4683L6.51416 14.2007V20.7437C5.50098 19.6694 4.92725 18.3999 4.92725 17.3379V13.4683ZM5.45215 25.0894C5.45215 24.2837 5.85498 23.6978 6.51416 23.478V20.7437C7.00244 21.2808 7.60059 21.769 8.30859 22.1841V23.478C8.95557 23.71 9.3584 24.2959 9.3584 25.0894V28.2632C9.3584 29.2886 8.68701 29.96 7.64941 29.96H7.16113C6.13574 29.96 5.45215 29.2886 5.45215 28.2632V25.0894Z" fill="#C1CDDA"/>
</svg>
