<svg width="13" height="14" viewBox="0 0 13 14" fill="none" xmlns="http://www.w3.org/2000/svg">
<path d="M0.472182 13.0996C0.360342 12.9877 0.286447 12.8559 0.250498 12.7041C0.214549 12.5564 0.214549 12.4066 0.250498 12.2548C0.290441 12.107 0.362339 11.9792 0.466191 11.8713L5.21742 7.12609L0.466191 2.37486C0.362339 2.27101 0.292438 2.14519 0.25649 1.9974C0.220541 1.84961 0.220541 1.69982 0.25649 1.54804C0.292438 1.39626 0.364336 1.26444 0.472182 1.1526C0.584023 1.04076 0.715835 0.966867 0.867619 0.930918C1.0194 0.89497 1.16919 0.89497 1.31698 0.930918C1.46477 0.966867 1.59259 1.03876 1.70043 1.14661L6.44567 5.89784L11.1909 1.14661C11.3027 1.03876 11.4326 0.966867 11.5804 0.930918C11.7281 0.89497 11.8759 0.896967 12.0237 0.93691C12.1715 0.972859 12.3013 1.04675 12.4132 1.15859C12.525 1.27043 12.5989 1.40025 12.6348 1.54804C12.6748 1.69583 12.6768 1.84561 12.6408 1.9974C12.6049 2.14519 12.531 2.27301 12.4192 2.38085L7.67991 7.12609L12.4192 11.8713C12.531 11.9792 12.6049 12.107 12.6408 12.2548C12.6768 12.4026 12.6748 12.5504 12.6348 12.6981C12.5989 12.8499 12.525 12.9817 12.4132 13.0936C12.3013 13.2054 12.1715 13.2793 12.0237 13.3153C11.8759 13.3552 11.7281 13.3572 11.5804 13.3213C11.4326 13.2853 11.3027 13.2134 11.1909 13.1056L6.44567 8.35434L1.70043 13.1056C1.59259 13.2094 1.46477 13.2793 1.31698 13.3153C1.16919 13.3512 1.0194 13.3512 0.867619 13.3153C0.719829 13.2793 0.588017 13.2074 0.472182 13.0996Z" fill="#007AFF"/>
</svg>
