<svg width="9" height="10" viewBox="0 0 9 10" fill="none" xmlns="http://www.w3.org/2000/svg">
<path d="M2.19821 8.50183C1.78492 8.50183 1.47108 8.39464 1.25668 8.18024C1.04487 7.96585 0.938965 7.64942 0.938965 7.23096V1.38806C0.938965 0.972184 1.04487 0.657049 1.25668 0.442654C1.47108 0.225676 1.78492 0.117188 2.19821 0.117188H6.32854C6.74183 0.117188 7.05438 0.224385 7.2662 0.43878C7.47801 0.653175 7.58391 0.969601 7.58391 1.38806V5.30141C7.48059 5.18776 7.36435 5.08572 7.2352 4.99532C7.10605 4.90491 6.96914 4.83258 6.82449 4.77834V1.43455C6.82449 1.25632 6.77541 1.11942 6.67726 1.02385C6.58168 0.925689 6.44349 0.87661 6.26267 0.87661H2.26408C2.0781 0.87661 1.93732 0.925689 1.84175 1.02385C1.74876 1.11942 1.70226 1.25632 1.70226 1.43455V7.19222C1.70226 7.37303 1.74876 7.50994 1.84175 7.60293C1.93732 7.69592 2.0781 7.74241 2.26408 7.74241H3.86817C3.92241 7.88706 3.99345 8.02397 4.08127 8.15312C4.17168 8.28227 4.27371 8.39851 4.38736 8.50183H2.19821ZM2.84915 2.45357C2.77424 2.45357 2.71353 2.42904 2.66704 2.37996C2.62054 2.33088 2.5973 2.27276 2.5973 2.2056C2.5973 2.13844 2.62054 2.08161 2.66704 2.03512C2.71353 1.98862 2.77424 1.96537 2.84915 1.96537H5.68148C5.75122 1.96537 5.80934 1.98862 5.85584 2.03512C5.90492 2.08161 5.92946 2.13844 5.92946 2.2056C5.92946 2.27276 5.90492 2.33088 5.85584 2.37996C5.80934 2.42904 5.75122 2.45357 5.68148 2.45357H2.84915ZM2.84915 3.77482C2.77424 3.77482 2.71353 3.75157 2.66704 3.70507C2.62054 3.65599 2.5973 3.59658 2.5973 3.52684C2.5973 3.45968 2.62054 3.40285 2.66704 3.35636C2.71353 3.30986 2.77424 3.28662 2.84915 3.28662H5.68148C5.75122 3.28662 5.80934 3.30986 5.85584 3.35636C5.90492 3.40285 5.92946 3.45968 5.92946 3.52684C5.92946 3.59658 5.90492 3.65599 5.85584 3.70507C5.80934 3.75157 5.75122 3.77482 5.68148 3.77482H2.84915ZM5.87909 8.50183C5.56654 8.50183 5.28111 8.42434 5.0228 8.26936C4.76449 8.11696 4.55656 7.9116 4.39899 7.6533C4.244 7.39499 4.16651 7.10956 4.16651 6.79701C4.16651 6.48187 4.244 6.19515 4.39899 5.93685C4.55656 5.67596 4.76449 5.46931 5.0228 5.31691C5.28111 5.16192 5.56654 5.08443 5.87909 5.08443C6.19422 5.08443 6.48094 5.16192 6.73925 5.31691C6.99756 5.46931 7.20291 5.67466 7.35531 5.93297C7.5103 6.19128 7.58779 6.47929 7.58779 6.79701C7.58779 7.10956 7.5103 7.39499 7.35531 7.6533C7.20291 7.9116 6.99756 8.11696 6.73925 8.26936C6.48094 8.42434 6.19422 8.50183 5.87909 8.50183ZM5.87909 7.91289C6.08315 7.91289 6.26913 7.86252 6.43703 7.76179C6.60751 7.66105 6.74312 7.52543 6.84386 7.35495C6.9446 7.18705 6.99497 7.00107 6.99497 6.79701C6.99497 6.59036 6.9446 6.40309 6.84386 6.23519C6.74312 6.06729 6.60751 5.93297 6.43703 5.83223C6.26913 5.72891 6.08315 5.67725 5.87909 5.67725C5.67244 5.67725 5.48388 5.72891 5.31339 5.83223C5.14549 5.93297 5.00988 6.06729 4.90656 6.23519C4.80582 6.40309 4.75545 6.59036 4.75545 6.79701C4.75545 7.00107 4.80582 7.18705 4.90656 7.35495C5.00988 7.52543 5.14549 7.66105 5.31339 7.76179C5.48388 7.86252 5.67244 7.91289 5.87909 7.91289ZM7.90551 9.20701C7.79443 9.20701 7.69499 9.1631 7.60716 9.07528L6.55327 8.02138L7.08796 7.52931L8.13798 8.57933C8.17415 8.61291 8.20256 8.65294 8.22322 8.69944C8.24389 8.74594 8.25422 8.79243 8.25422 8.83893C8.25422 8.94483 8.22064 9.03266 8.15348 9.1024C8.08632 9.17214 8.00366 9.20701 7.90551 9.20701Z" fill="#8F00FF"/>
</svg>
