<svg width="26" height="26" viewBox="0 0 26 26" fill="none" xmlns="http://www.w3.org/2000/svg">
<path d="M6.51172 22.6436C4.53516 22.6436 3.60059 21.709 3.60059 19.7324V17.4336C3.60059 17.2295 3.54688 17.0791 3.39648 16.9287L1.77441 15.2959C0.37793 13.8994 0.367188 12.5889 1.77441 11.1924L3.39648 9.55957C3.54688 9.40918 3.60059 9.25879 3.60059 9.05469V6.75586C3.60059 4.75781 4.52441 3.84473 6.51172 3.84473H8.81055C9.01465 3.84473 9.16504 3.78027 9.31543 3.64062L10.9482 2.01855C12.3447 0.611328 13.6553 0.600586 15.0518 2.00781L16.6846 3.64062C16.835 3.79102 16.9854 3.84473 17.2002 3.84473H19.499C21.4756 3.84473 22.3994 4.7793 22.3994 6.75586V9.05469C22.3994 9.25879 22.4531 9.39844 22.6143 9.55957L24.2363 11.1924C25.6328 12.5889 25.6436 13.8994 24.2363 15.2959L22.6143 16.9287C22.4639 17.0791 22.3994 17.2295 22.3994 17.4336V19.7324C22.3994 21.709 21.4648 22.6436 19.499 22.6436H17.2002C16.9854 22.6436 16.8457 22.6973 16.6846 22.8477L15.0518 24.4697C13.6553 25.8662 12.3447 25.877 10.9482 24.4697L9.31543 22.8477C9.16504 22.6973 9.01465 22.6436 8.81055 22.6436H6.51172ZM11.8076 18.54C12.2158 18.54 12.5596 18.3467 12.7959 17.9707L17.834 10.1396C17.9844 9.90332 18.1133 9.63477 18.1133 9.3877C18.1133 8.81836 17.6191 8.44238 17.082 8.44238C16.749 8.44238 16.4482 8.63574 16.2119 9.01172L11.7754 16.1123L9.70215 13.4912C9.42285 13.1367 9.16504 13.0186 8.83203 13.0186C8.28418 13.0186 7.84375 13.459 7.84375 14.0068C7.84375 14.2861 7.94043 14.5332 8.13379 14.7803L10.7656 17.9814C11.0771 18.3682 11.3994 18.54 11.8076 18.54Z" fill="#007AFF"/>
</svg>
