<svg width="14" height="13" viewBox="0 0 14 13" fill="none" xmlns="http://www.w3.org/2000/svg">
<path d="M4.47684 12.6975C4.2447 12.6975 4.06296 12.6227 3.93162 12.473C3.80333 12.3264 3.73919 12.1248 3.73919 11.8682V10.4204H3.37265C2.82895 10.4204 2.35551 10.312 1.95232 10.0951C1.55218 9.87826 1.24216 9.5667 1.02223 9.16046C0.805366 8.75116 0.696933 8.26244 0.696933 7.69431V2.99806C0.696933 2.42993 0.803839 1.94274 1.01765 1.5365C1.23452 1.1272 1.54608 0.814117 1.95232 0.597249C2.36162 0.377328 2.85339 0.267367 3.42763 0.267367H11.2211C11.7954 0.267367 12.2856 0.377328 12.6918 0.597249C13.1011 0.814117 13.4127 1.1272 13.6265 1.5365C13.8434 1.94274 13.9518 2.42993 13.9518 2.99806V7.69431C13.9518 8.26244 13.8434 8.74963 13.6265 9.15588C13.4127 9.56212 13.1011 9.87368 12.6918 10.0905C12.2856 10.3105 11.7954 10.4204 11.2211 10.4204H7.47328L5.439 12.2073C5.24046 12.3753 5.07093 12.499 4.93043 12.5784C4.78992 12.6578 4.63873 12.6975 4.47684 12.6975ZM4.76091 11.4055L6.65315 9.57281C6.77533 9.44758 6.88834 9.36511 6.9922 9.3254C7.0991 9.28569 7.23808 9.26584 7.40913 9.26584H11.1753C11.5327 9.26584 11.8305 9.20475 12.0687 9.08257C12.31 8.95734 12.4902 8.77407 12.6094 8.53276C12.7315 8.29146 12.7926 7.99518 12.7926 7.64391V3.04846C12.7926 2.69414 12.7315 2.39786 12.6094 2.15961C12.4902 1.91831 12.31 1.73657 12.0687 1.61439C11.8305 1.48915 11.5327 1.42654 11.1753 1.42654H3.47345C3.11302 1.42654 2.81215 1.48915 2.57085 1.61439C2.3326 1.73657 2.15239 1.91831 2.03021 2.15961C1.91108 2.39786 1.85152 2.69414 1.85152 3.04846V7.64391C1.85152 7.99518 1.91108 8.29146 2.03021 8.53276C2.15239 8.77407 2.3326 8.95734 2.57085 9.08257C2.81215 9.20475 3.11302 9.26584 3.47345 9.26584H4.30273C4.45851 9.26584 4.57306 9.30096 4.64636 9.37122C4.72272 9.43841 4.76091 9.55601 4.76091 9.72401V11.4055ZM4.28899 3.7907C4.1943 3.7907 4.11336 3.75557 4.04616 3.68532C3.97896 3.61507 3.94536 3.53107 3.94536 3.43333C3.94536 3.33864 3.97896 3.25769 4.04616 3.19049C4.11336 3.12024 4.1943 3.08512 4.28899 3.08512H10.259C10.3567 3.08512 10.4392 3.12024 10.5064 3.19049C10.5736 3.25769 10.6072 3.33864 10.6072 3.43333C10.6072 3.53107 10.5736 3.61507 10.5064 3.68532C10.4392 3.75557 10.3567 3.7907 10.259 3.7907H4.28899ZM4.28899 5.65545C4.1943 5.65545 4.11336 5.62185 4.04616 5.55466C3.97896 5.4844 3.94536 5.39888 3.94536 5.29808C3.94536 5.20339 3.97896 5.12092 4.04616 5.05067C4.11336 4.98041 4.1943 4.94529 4.28899 4.94529H10.259C10.3567 4.94529 10.4392 4.98041 10.5064 5.05067C10.5736 5.12092 10.6072 5.20339 10.6072 5.29808C10.6072 5.39888 10.5736 5.4844 10.5064 5.55466C10.4392 5.62185 10.3567 5.65545 10.259 5.65545H4.28899ZM4.28899 7.52937C4.1943 7.52937 4.11336 7.49424 4.04616 7.42399C3.97896 7.35374 3.94536 7.26974 3.94536 7.172C3.94536 7.07425 3.97896 6.99178 4.04616 6.92458C4.11336 6.85433 4.1943 6.81921 4.28899 6.81921H8.19718C8.29187 6.81921 8.37282 6.85433 8.44002 6.92458C8.51027 6.99178 8.54539 7.07425 8.54539 7.172C8.54539 7.26974 8.51027 7.35374 8.44002 7.42399C8.37282 7.49424 8.29187 7.52937 8.19718 7.52937H4.28899Z" fill="#007AFF"/>
</svg>
