<svg width="14" height="9" viewBox="0 0 14 9" fill="none" xmlns="http://www.w3.org/2000/svg">
<path d="M6.8808 8.28225C6.27809 8.28225 5.70701 8.20842 5.16758 8.06075C4.63116 7.9161 4.13242 7.72474 3.67134 7.48667C3.21327 7.24558 2.80192 6.98038 2.43728 6.69108C2.07263 6.40178 1.76073 6.11247 1.50156 5.82317C1.24239 5.53085 1.04349 5.26114 0.90487 5.01402C0.769259 4.76389 0.701453 4.56198 0.701453 4.40829C0.701453 4.2546 0.769259 4.0542 0.90487 3.80708C1.04349 3.55695 1.24239 3.28724 1.50156 2.99793C1.76073 2.70562 2.07263 2.41481 2.43728 2.1255C2.80493 1.8362 3.21779 1.57251 3.67586 1.33444C4.13694 1.09335 4.63568 0.900481 5.1721 0.75583C5.71153 0.608164 6.2811 0.534331 6.8808 0.534331C7.48653 0.534331 8.05911 0.608164 8.59855 0.75583C9.14099 0.900481 9.64124 1.09335 10.0993 1.33444C10.5604 1.57251 10.9717 1.8362 11.3334 2.1255C11.698 2.41481 12.0084 2.70562 12.2646 2.99793C12.5207 3.28724 12.7166 3.55695 12.8522 3.80708C12.9878 4.0542 13.0556 4.2546 13.0556 4.40829C13.0556 4.56198 12.9878 4.76389 12.8522 5.01402C12.7166 5.26114 12.5207 5.53085 12.2646 5.82317C12.0084 6.11247 11.698 6.40178 11.3334 6.69108C10.9717 6.98038 10.5619 7.24558 10.1038 7.48667C9.64577 7.72474 9.14551 7.9161 8.60307 8.06075C8.06363 8.20842 7.48955 8.28225 6.8808 8.28225ZM6.8808 7.56803C7.37503 7.56803 7.84967 7.50625 8.30472 7.3827C8.76279 7.25914 9.19222 7.09641 9.59303 6.8945C9.99383 6.68957 10.357 6.46657 10.6824 6.22548C11.0109 5.98439 11.2927 5.74632 11.5277 5.51126C11.7628 5.27319 11.9436 5.05621 12.0702 4.86033C12.1998 4.66445 12.2646 4.51377 12.2646 4.40829C12.2646 4.31788 12.1998 4.17926 12.0702 3.99242C11.9436 3.80557 11.7628 3.59312 11.5277 3.35504C11.2927 3.11396 11.0109 2.87136 10.6824 2.62726C10.357 2.38316 9.99383 2.15715 9.59303 1.94921C9.19222 1.73826 8.76279 1.5695 8.30472 1.44293C7.84967 1.31334 7.37503 1.24855 6.8808 1.24855C6.38356 1.24855 5.90591 1.31334 5.44785 1.44293C4.98978 1.5695 4.56035 1.73826 4.15954 1.94921C3.75873 2.15715 3.3956 2.38316 3.07013 2.62726C2.74466 2.87136 2.46289 3.11396 2.22482 3.35504C1.98976 3.59312 1.80894 3.80557 1.68237 3.99242C1.5558 4.17926 1.49252 4.31788 1.49252 4.40829C1.49252 4.51377 1.5558 4.66445 1.68237 4.86033C1.80894 5.05621 1.98976 5.27319 2.22482 5.51126C2.46289 5.74632 2.74466 5.98439 3.07013 6.22548C3.3956 6.46657 3.75873 6.68957 4.15954 6.8945C4.56035 7.09641 4.98978 7.25914 5.44785 7.3827C5.90591 7.50625 6.38356 7.56803 6.8808 7.56803ZM6.8808 6.9397C6.5252 6.9397 6.19371 6.8734 5.88632 6.7408C5.57894 6.60821 5.30922 6.42588 5.07717 6.19384C4.84513 5.95878 4.66281 5.68906 4.53021 5.38469C4.40063 5.07731 4.33583 4.75184 4.33583 4.40829C4.33583 4.0557 4.40063 3.72571 4.53021 3.41833C4.66281 3.11094 4.84513 2.84274 5.07717 2.6137C5.30922 2.38166 5.57894 2.20084 5.88632 2.07126C6.19371 1.94167 6.5252 1.87688 6.8808 1.87688C7.23038 1.87688 7.55886 1.94167 7.86624 2.07126C8.17363 2.20084 8.44335 2.38166 8.67539 2.6137C8.90744 2.84274 9.08825 3.11094 9.21784 3.41833C9.35043 3.72571 9.41673 4.0557 9.41673 4.40829C9.41673 4.75184 9.35043 5.07731 9.21784 5.38469C9.08825 5.68906 8.90744 5.95878 8.67539 6.19384C8.44335 6.42588 8.17363 6.60821 7.86624 6.7408C7.55886 6.8734 7.23038 6.9397 6.8808 6.9397ZM6.8808 5.24908C7.11285 5.24908 7.31175 5.16621 7.47749 5.00046C7.64324 4.83471 7.72611 4.63732 7.72611 4.40829C7.72611 4.17625 7.64324 3.97886 7.47749 3.81612C7.31175 3.65038 7.11285 3.5675 6.8808 3.5675C6.64574 3.5675 6.44534 3.65038 6.27959 3.81612C6.11385 3.97886 6.03097 4.17625 6.03097 4.40829C6.03097 4.63732 6.11385 4.83471 6.27959 5.00046C6.44534 5.16621 6.64574 5.24908 6.8808 5.24908Z" fill="black"/>
</svg>
