<svg width="25" height="25" viewBox="0 0 25 25" fill="none" xmlns="http://www.w3.org/2000/svg">
<g id="emotion-laugh-line">
<path id="Vector" d="M12.4488 2.87158C17.9362 2.87158 22.3847 7.32003 22.3847 12.8075C22.3847 18.2949 17.9362 22.7434 12.4488 22.7434C6.96139 22.7434 2.51294 18.2949 2.51294 12.8075C2.51294 7.32003 6.96139 2.87158 12.4488 2.87158ZM12.4488 4.85876C8.05888 4.85876 4.50012 8.41752 4.50012 12.8075C4.50012 17.1975 8.05888 20.7562 12.4488 20.7562C16.8388 20.7562 20.3976 17.1975 20.3976 12.8075C20.3976 8.41752 16.8388 4.85876 12.4488 4.85876ZM12.4488 11.8139C14.436 11.8139 16.092 12.1451 17.4168 12.8075C17.4168 15.5512 15.1925 17.7754 12.4488 17.7754C9.70512 17.7754 7.48089 15.5512 7.48089 12.8075C8.80567 12.1451 10.4617 11.8139 12.4488 11.8139ZM8.97127 7.83953C10.1732 7.83953 11.1758 8.69319 11.4057 9.82728H6.53687C6.76681 8.69319 7.76935 7.83953 8.97127 7.83953ZM15.9264 7.83953C17.1283 7.83953 18.1309 8.69319 18.3608 9.82728H13.492C13.7219 8.69319 14.7245 7.83953 15.9264 7.83953Z" fill="#5FD22B"/>
</g>
</svg>
