<svg width="30" height="27" viewBox="0 0 30 27" fill="none" xmlns="http://www.w3.org/2000/svg">
<path d="M28.4385 6.19531C29.1797 6.52832 29.5664 7.14062 29.5664 7.77441C29.5664 8.4082 29.1797 9.00977 28.4385 9.35352L17.9434 14.1553C16.8154 14.6709 15.8916 14.9072 14.9893 14.8857C14.0869 14.9072 13.1738 14.6816 12.0459 14.1553L7.38379 12.0283L13.9365 8.97754C14.2695 9.07422 14.6455 9.12793 15.0322 9.12793C16.2568 9.12793 17.4277 8.56934 17.4277 7.77441C17.4277 7.00098 16.2461 6.44238 15.0322 6.44238C13.8076 6.44238 12.6152 7.00098 12.6152 7.77441C12.6152 7.84961 12.6367 7.9248 12.6797 7.98926L5.72949 11.2334L1.55078 9.35352C0.80957 9.00977 0.422852 8.4082 0.422852 7.77441C0.422852 7.14062 0.80957 6.52832 1.55078 6.19531L12.0459 1.39355C13.1738 0.888672 14.0869 0.652344 14.9893 0.663086C15.8916 0.652344 16.8154 0.888672 17.9434 1.39355L28.4385 6.19531ZM7.35156 13.7256L11.3906 15.584C12.6904 16.1748 13.8721 16.4648 14.9893 16.4541C16.1172 16.4648 17.2988 16.1748 18.5986 15.584L25.6025 12.3613V15.7773C25.6025 19.1182 21.3057 21.8359 14.9893 21.8359C11.8525 21.8359 9.20996 21.1592 7.35156 20.042V13.7256ZM4.37598 12.3721L5.77246 13.0166V18.7744C4.88086 17.8291 4.37598 16.7119 4.37598 15.7773V12.3721ZM4.83789 22.5986C4.83789 21.8896 5.19238 21.374 5.77246 21.1807V18.7744C6.20215 19.2471 6.72852 19.6768 7.35156 20.042V21.1807C7.9209 21.3848 8.27539 21.9004 8.27539 22.5986V25.3916C8.27539 26.2939 7.68457 26.8848 6.77148 26.8848H6.3418C5.43945 26.8848 4.83789 26.2939 4.83789 25.3916V22.5986Z" fill="#9747FF"/>
</svg>
