<svg width="13" height="15" viewBox="0 0 13 15" fill="none" xmlns="http://www.w3.org/2000/svg">
<path d="M8.4209 2.66992C7.93018 3.26318 7.10986 3.70264 6.45801 3.70264C6.37744 3.70264 6.3042 3.68799 6.26025 3.68066C6.25293 3.64404 6.23096 3.53418 6.23096 3.41699C6.23096 2.66992 6.61182 1.92285 7.0293 1.4541C7.54932 0.838867 8.42822 0.384766 9.16064 0.355469C9.17529 0.436035 9.18262 0.538574 9.18262 0.641113C9.18262 1.38818 8.86768 2.12793 8.4209 2.66992ZM8.93359 3.85645C9.34375 3.85645 10.8306 3.90039 11.8047 5.29932C11.7168 5.36523 10.2446 6.2002 10.2446 8.06055C10.2446 10.2065 12.1196 10.9756 12.1782 10.9902C12.1709 11.0415 11.8779 12.0303 11.1895 13.0483C10.5669 13.9346 9.91504 14.8354 8.93359 14.8354C7.94482 14.8354 7.68848 14.2568 6.56055 14.2568C5.44727 14.2568 5.05176 14.8501 4.1582 14.8501C3.25 14.8501 2.62012 14.0225 1.90234 13.0117C1.06006 11.8179 0.38623 9.96484 0.38623 8.20703C0.38623 5.39453 2.21729 3.90039 4.02637 3.90039C4.97852 3.90039 5.76953 4.52295 6.37744 4.52295C6.94873 4.52295 7.84229 3.85645 8.93359 3.85645Z" fill="white"/>
</svg>
