<svg width="11" height="11" viewBox="0 0 11 11" fill="none" xmlns="http://www.w3.org/2000/svg">
<path d="M4.45508 10.4961C4.16211 10.4961 3.94531 10.373 3.74023 10.1211L0.705078 6.32422C0.558594 6.14258 0.494141 5.97266 0.494141 5.79688C0.494141 5.39258 0.792969 5.09961 1.20312 5.09961C1.46094 5.09961 1.63672 5.19336 1.80664 5.42188L4.43164 8.79102L9.52344 0.705078C9.69922 0.429688 9.86914 0.330078 10.1562 0.330078C10.5664 0.330078 10.8477 0.611328 10.8477 1.01562C10.8477 1.17383 10.8008 1.33789 10.6777 1.52539L5.16992 10.1152C5 10.3672 4.76562 10.4961 4.45508 10.4961Z" fill="#FFCB3D"/>
</svg>
