<svg width="13" height="13" viewBox="0 0 13 13" fill="none" xmlns="http://www.w3.org/2000/svg">
<path d="M1.12793 12.3369C0.871582 12.0879 0.878906 11.6631 1.12793 11.4141L5.81543 6.71924L1.12793 2.03174C0.878906 1.78271 0.878906 1.36523 1.12793 1.10889C1.37695 0.845215 1.80908 0.852539 2.05811 1.10889L6.74561 5.79639L11.4331 1.10889C11.6821 0.852539 12.1069 0.852539 12.3633 1.10889C12.6196 1.35791 12.6123 1.78271 12.3633 2.03174L7.67578 6.71924L12.3633 11.4141C12.6123 11.6631 12.6123 12.0806 12.3633 12.3369C12.1143 12.5933 11.6821 12.5859 11.4331 12.3369L6.74561 7.64941L2.05811 12.3369C1.80908 12.5859 1.38428 12.5859 1.12793 12.3369Z" fill="black"/>
</svg>
