<svg width="15" height="16" viewBox="0 0 15 16" fill="none" xmlns="http://www.w3.org/2000/svg">
<path d="M7.5 15.1943C6.52474 15.1943 5.60645 15.0075 4.74512 14.6338C3.88379 14.2646 3.125 13.752 2.46875 13.0957C1.8125 12.4395 1.29753 11.6829 0.923828 10.8262C0.554688 9.96484 0.370117 9.04427 0.370117 8.06445C0.370117 7.08919 0.554688 6.17318 0.923828 5.31641C1.29753 4.45508 1.81022 3.69629 2.46191 3.04004C3.11816 2.38379 3.87695 1.87109 4.73828 1.50195C5.59961 1.12826 6.5179 0.941406 7.49316 0.941406C8.46842 0.941406 9.38672 1.12826 10.248 1.50195C11.1139 1.87109 11.8727 2.38379 12.5244 3.04004C13.1807 3.69629 13.6956 4.45508 14.0693 5.31641C14.443 6.17318 14.6299 7.08919 14.6299 8.06445C14.6299 9.04427 14.443 9.96484 14.0693 10.8262C13.6956 11.6829 13.1807 12.4395 12.5244 13.0957C11.8727 13.752 11.1162 14.2646 10.2549 14.6338C9.39355 15.0075 8.47526 15.1943 7.5 15.1943ZM7.5 9.17871C7.9375 9.17871 8.16536 8.95085 8.18359 8.49512L8.29297 5.26172C8.30208 5.03841 8.22917 4.85384 8.07422 4.70801C7.92383 4.55762 7.73014 4.48242 7.49316 4.48242C7.25163 4.48242 7.05566 4.55534 6.90527 4.70117C6.75488 4.84701 6.68424 5.03385 6.69336 5.26172L6.7959 8.49512C6.81413 8.95085 7.04883 9.17871 7.5 9.17871ZM7.5 11.585C7.74609 11.585 7.95573 11.5098 8.12891 11.3594C8.30208 11.2044 8.38867 11.0062 8.38867 10.7646C8.38867 10.5277 8.30208 10.3317 8.12891 10.1768C7.95573 10.0218 7.74609 9.94434 7.5 9.94434C7.24935 9.94434 7.03743 10.0218 6.86426 10.1768C6.69108 10.3317 6.60449 10.5277 6.60449 10.7646C6.60449 11.0062 6.69108 11.2044 6.86426 11.3594C7.04199 11.5098 7.25391 11.585 7.5 11.585Z" fill="#FF4747"/>
</svg>
