<svg width="14" height="8" viewBox="0 0 14 8" fill="none" xmlns="http://www.w3.org/2000/svg">
<path d="M6.88867 7.89258C6.61979 7.89258 6.3737 7.7832 6.15039 7.56445L1.00293 2.30078C0.916341 2.20964 0.85026 2.11165 0.804688 2.00684C0.763672 1.90202 0.743164 1.78581 0.743164 1.6582C0.743164 1.48958 0.78418 1.33464 0.866211 1.19336C0.948242 1.05208 1.05762 0.94043 1.19434 0.858398C1.33561 0.776367 1.49056 0.735352 1.65918 0.735352C1.91439 0.735352 2.1377 0.828776 2.3291 1.01562L7.20312 6.01953H6.58105L11.4414 1.01562C11.6328 0.828776 11.8561 0.735352 12.1113 0.735352C12.2799 0.735352 12.4326 0.776367 12.5693 0.858398C12.7106 0.94043 12.8223 1.05208 12.9043 1.19336C12.9863 1.33464 13.0273 1.48958 13.0273 1.6582C13.0273 1.90885 12.9385 2.12077 12.7607 2.29395L7.62695 7.56445C7.51758 7.67383 7.40137 7.75586 7.27832 7.81055C7.15983 7.86068 7.02995 7.88802 6.88867 7.89258Z" fill="black"/>
</svg>
