<svg width="25" height="25" viewBox="0 0 25 25" fill="none" xmlns="http://www.w3.org/2000/svg">
<g id="emotion-unhappy-line">
<g id="Vector">
<path d="M12.7755 22.7434C7.28805 22.7434 2.8396 18.2949 2.8396 12.8075C2.8396 7.32003 7.28805 2.87158 12.7755 2.87158C18.2629 2.87158 22.7114 7.32003 22.7114 12.8075C22.7114 18.2949 18.2629 22.7434 12.7755 22.7434ZM12.7755 20.7562C17.1655 20.7562 20.7242 17.1975 20.7242 12.8075C20.7242 8.41752 17.1655 4.85876 12.7755 4.85876C8.38554 4.85876 4.82678 8.41752 4.82678 12.8075C4.82678 17.1975 8.38554 20.7562 12.7755 20.7562ZM8.80114 13.4036C7.97802 13.4036 7.31075 12.7363 7.31075 11.9132C7.31075 11.0901 7.97802 10.4229 8.80114 10.4229C9.62426 10.4229 10.2915 11.0901 10.2915 11.9132C10.2915 12.7363 9.62426 13.4036 8.80114 13.4036ZM16.7499 13.4036C15.9268 13.4036 15.2595 12.7363 15.2595 11.9132C15.2595 11.0901 15.9268 10.4229 16.7499 10.4229C17.5729 10.4229 18.2402 11.0901 18.2402 11.9132C18.2402 12.7363 17.5729 13.4036 16.7499 13.4036Z" fill="#E48227"/>
<path d="M16.4517 17.4146C15.543 16.4154 14.2325 15.7882 12.7755 15.7882C11.3185 15.7882 10.008 16.4154 9.09931 17.4146L10.0382 18.2683C10.8231 17.9568 11.764 17.7754 12.7755 17.7754C13.787 17.7754 14.7279 17.9568 15.5127 18.2683L16.4517 17.4146Z" fill="#E48227"/>
</g>
</g>
</svg>
