<svg width="12" height="16" viewBox="0 0 12 16" fill="none" xmlns="http://www.w3.org/2000/svg">
<path d="M0.0527344 13.2051V2.93066C0.0527344 1.41992 0.845703 0.620117 2.34961 0.620117H9.65039C11.1475 0.620117 11.9473 1.41992 11.9473 2.93066V13.2051C11.9473 14.7158 11.1475 15.5225 9.65039 15.5225H2.34961C0.845703 15.5225 0.0527344 14.7158 0.0527344 13.2051ZM1.57715 13.0752C1.57715 13.6768 1.87793 13.998 2.50684 13.998H9.49316C10.1221 13.998 10.4229 13.6768 10.4229 13.0752V3.06055C10.4229 2.46582 10.1221 2.1377 9.49316 2.1377H2.50684C1.87793 2.1377 1.57715 2.46582 1.57715 3.06055V13.0752ZM3.5459 4.47559C3.2793 4.47559 3.09473 4.27734 3.09473 4.02441C3.09473 3.77832 3.2793 3.58691 3.5459 3.58691H8.64551C8.89844 3.58691 9.08984 3.77832 9.08984 4.02441C9.08984 4.27734 8.89844 4.47559 8.64551 4.47559H3.5459ZM3.5459 6.41699C3.2793 6.41699 3.09473 6.21875 3.09473 5.97266C3.09473 5.72656 3.2793 5.53516 3.5459 5.53516H6.51953C6.77246 5.53516 6.96387 5.72656 6.96387 5.97266C6.96387 6.21875 6.77246 6.41699 6.51953 6.41699H3.5459ZM3.6416 12.7881C3.08789 12.7881 2.7666 12.4941 2.7666 11.9268V8.34473C2.7666 7.77734 3.08789 7.47656 3.6416 7.47656H8.37207C8.94629 7.47656 9.24023 7.77734 9.24023 8.34473V11.9268C9.24023 12.4941 8.94629 12.7881 8.37207 12.7881H3.6416Z" fill="#C1CDDA"/>
</svg>
