<svg width="26" height="25" viewBox="0 0 26 25" fill="none" xmlns="http://www.w3.org/2000/svg">
<path d="M5.55566 23.7715C5.05078 23.3955 4.94336 22.7725 5.2334 21.9238L7.44629 15.3604L1.80664 11.3105C1.07617 10.7949 0.775391 10.2256 0.979492 9.62402C1.18359 9.0332 1.74219 8.74316 2.63379 8.75391L9.55176 8.79688L11.6572 2.20117C11.9365 1.3418 12.377 0.879883 13 0.879883C13.6338 0.879883 14.0742 1.3418 14.3428 2.20117L16.4482 8.79688L23.3662 8.75391C24.2578 8.74316 24.8271 9.0332 25.0312 9.62402C25.2354 10.2256 24.9238 10.7949 24.2041 11.3105L18.5645 15.3604L20.7666 21.9238C21.0566 22.7725 20.9492 23.3955 20.4551 23.7715C19.9502 24.1582 19.3164 24.0293 18.5859 23.5029L13 19.3994L7.41406 23.5029C6.68359 24.0293 6.06055 24.1582 5.55566 23.7715Z" fill="#FFCB3D"/>
</svg>
