<svg width="25" height="25" viewBox="0 0 25 25" fill="none" xmlns="http://www.w3.org/2000/svg">
<g id="emotion-happy-line">
<path id="Vector" d="M12.2245 22.7434C6.73702 22.7434 2.28857 18.2949 2.28857 12.8075C2.28857 7.32003 6.73702 2.87158 12.2245 2.87158C17.7119 2.87158 22.1604 7.32003 22.1604 12.8075C22.1604 18.2949 17.7119 22.7434 12.2245 22.7434ZM12.2245 20.7562C16.6144 20.7562 20.1732 17.1975 20.1732 12.8075C20.1732 8.41752 16.6144 4.85876 12.2245 4.85876C7.83451 4.85876 4.27575 8.41752 4.27575 12.8075C4.27575 17.1975 7.83451 20.7562 12.2245 20.7562ZM7.25652 13.8011H9.2437C9.2437 15.4473 10.5782 16.7818 12.2245 16.7818C13.8708 16.7818 15.2052 15.4473 15.2052 13.8011H17.1924C17.1924 16.5448 14.9682 18.769 12.2245 18.769C9.48075 18.769 7.25652 16.5448 7.25652 13.8011ZM8.25011 11.8139C7.42699 11.8139 6.75973 11.1466 6.75973 10.3235C6.75973 9.50039 7.42699 8.83312 8.25011 8.83312C9.07323 8.83312 9.7405 9.50039 9.7405 10.3235C9.7405 11.1466 9.07323 11.8139 8.25011 11.8139ZM16.1988 11.8139C15.3757 11.8139 14.7084 11.1466 14.7084 10.3235C14.7084 9.50039 15.3757 8.83312 16.1988 8.83312C17.0219 8.83312 17.6892 9.50039 17.6892 10.3235C17.6892 11.1466 17.0219 11.8139 16.1988 11.8139Z" fill="#C0E420"/>
</g>
</svg>
