<svg width="14" height="16" viewBox="0 0 14 16" fill="none" xmlns="http://www.w3.org/2000/svg">
<path d="M1.22811 5.17636C0.952761 5.17636 0.719141 5.27238 0.527102 5.46442C0.335062 5.65646 0.239014 5.8869 0.239014 6.15586V10.2854C0.239014 10.5611 0.335033 10.7945 0.527102 10.9866C0.719141 11.1786 0.952761 11.2747 1.22811 11.2747C1.50325 11.2747 1.73545 11.1787 1.92452 10.9866C2.1132 10.7946 2.20781 10.5611 2.20781 10.2854V6.15586C2.20781 5.88687 2.11179 5.65646 1.91972 5.46442C1.72765 5.27238 1.49706 5.17636 1.22811 5.17636ZM9.18008 1.46924L9.86196 0.211364C9.90672 0.128087 9.89079 0.0642282 9.81405 0.0193247C9.73074 -0.0193953 9.66674 0.000224747 9.62201 0.0767977L8.9306 1.34473C8.3222 1.07574 7.67873 0.941004 7.00018 0.941004C6.32148 0.941004 5.67795 1.07577 5.06979 1.34473L4.37835 0.0767977C4.33342 0.000224747 4.26941 -0.0192219 4.18631 0.0193247C4.10939 0.0644305 4.09347 0.128087 4.1384 0.211364L4.8203 1.46924C4.12886 1.82185 3.57817 2.31293 3.16844 2.94355C2.7587 3.57451 2.55374 4.26401 2.55374 5.01327H11.437C11.437 4.26418 11.232 3.57465 10.8223 2.94355C10.4125 2.31293 9.86499 1.82185 9.18008 1.46924ZM5.23779 3.29884C5.16404 3.37276 5.07597 3.40954 4.97359 3.40954C4.87102 3.40954 4.78473 3.37276 4.71434 3.29884C4.64395 3.22528 4.60876 3.13755 4.60876 3.03483C4.60876 2.93245 4.64395 2.84455 4.71434 2.77081C4.78473 2.69724 4.87122 2.66046 4.97359 2.66046C5.07597 2.66046 5.16404 2.69724 5.23779 2.77081C5.31135 2.84472 5.34831 2.93245 5.34831 3.03483C5.34811 3.13738 5.31118 3.22528 5.23779 3.29884ZM9.28564 3.29884C9.2151 3.37276 9.12862 3.40954 9.02641 3.40954C8.92381 3.40954 8.83576 3.37276 8.76217 3.29884C8.68845 3.22528 8.65167 3.13755 8.65167 3.03483C8.65167 2.93245 8.68845 2.84455 8.76217 2.77081C8.83576 2.69724 8.92381 2.66046 9.02641 2.66046C9.12879 2.66046 9.21507 2.69724 9.28564 2.77081C9.35608 2.84472 9.39122 2.93245 9.39122 3.03483C9.39122 3.13738 9.35605 3.22528 9.28564 3.29884ZM2.59189 11.7548C2.59189 12.0496 2.69426 12.2991 2.89904 12.5039C3.104 12.7087 3.35354 12.8111 3.64813 12.8111H4.35884L4.36858 14.9913C4.36858 15.2667 4.4646 15.5004 4.65664 15.6925C4.84868 15.8846 5.07929 15.9806 5.34808 15.9806C5.62325 15.9806 5.85702 15.8846 6.04908 15.6925C6.24115 15.5004 6.33717 15.2667 6.33717 14.9913V12.8113H7.66243V14.9913C7.66243 15.2667 7.75842 15.5004 7.95049 15.6925C8.14256 15.8846 8.37612 15.9806 8.6515 15.9806C8.92667 15.9806 9.16043 15.8846 9.3525 15.6925C9.54457 15.5004 9.64056 15.2667 9.64056 14.9913V12.8113H10.3609C10.6489 12.8113 10.8953 12.7089 11.1004 12.5041C11.3052 12.2993 11.4076 12.0498 11.4076 11.755V5.35866H2.59189V11.7548ZM12.7719 5.17636C12.5029 5.17636 12.2725 5.27096 12.0804 5.45965C11.8884 5.64868 11.7923 5.88089 11.7923 6.15586V10.2854C11.7923 10.5611 11.8883 10.7945 12.0804 10.9866C12.2725 11.1787 12.5031 11.2747 12.7719 11.2747C13.047 11.2747 13.2808 11.1787 13.4729 10.9866C13.6649 10.7945 13.7609 10.5611 13.7609 10.2854V6.15586C13.7609 5.88086 13.6649 5.64868 13.4729 5.45965C13.2808 5.27096 13.047 5.17636 12.7719 5.17636Z" fill="black"/>
</svg>
