<svg width="16" height="16" viewBox="0 0 16 16" fill="none" xmlns="http://www.w3.org/2000/svg">
<path d="M8 15.1826C6.97949 15.1826 6.01758 14.9873 5.11426 14.5967C4.21582 14.2061 3.42236 13.6665 2.73389 12.978C2.04541 12.2896 1.50586 11.4961 1.11523 10.5977C0.724609 9.69434 0.529297 8.73242 0.529297 7.71191C0.529297 6.69141 0.724609 5.73193 1.11523 4.8335C1.50586 3.93018 2.04297 3.13428 2.72656 2.4458C3.41504 1.75732 4.2085 1.21777 5.10693 0.827148C6.01025 0.436523 6.97217 0.241211 7.99268 0.241211C9.01318 0.241211 9.9751 0.436523 10.8784 0.827148C11.7817 1.21777 12.5776 1.75732 13.2661 2.4458C13.9546 3.13428 14.4941 3.93018 14.8848 4.8335C15.2754 5.73193 15.4707 6.69141 15.4707 7.71191C15.4707 8.73242 15.2754 9.69434 14.8848 10.5977C14.4941 11.4961 13.9546 12.2896 13.2661 12.978C12.5776 13.6665 11.7817 14.2061 10.8784 14.5967C9.97998 14.9873 9.02051 15.1826 8 15.1826ZM7.17969 11.2861C7.30664 11.2861 7.42139 11.2568 7.52393 11.1982C7.62646 11.1396 7.7168 11.0518 7.79492 10.9346L11.2373 5.50732C11.2812 5.43408 11.3228 5.35596 11.3618 5.27295C11.4009 5.18994 11.4204 5.10693 11.4204 5.02393C11.4204 4.85303 11.3569 4.71875 11.23 4.62109C11.103 4.51855 10.9614 4.46729 10.8052 4.46729C10.5903 4.46729 10.4146 4.57959 10.2778 4.8042L7.15039 9.82861L5.66357 7.90967C5.5708 7.7876 5.48047 7.70459 5.39258 7.66064C5.30957 7.6167 5.21436 7.59473 5.10693 7.59473C4.94092 7.59473 4.80176 7.65576 4.68945 7.77783C4.57715 7.89502 4.521 8.03662 4.521 8.20264C4.521 8.28564 4.53564 8.36865 4.56494 8.45166C4.59912 8.52979 4.64307 8.60547 4.69678 8.67871L6.53516 10.9346C6.63281 11.0615 6.73291 11.1519 6.83545 11.2056C6.93799 11.2593 7.05273 11.2861 7.17969 11.2861Z" fill="#48DE5A"/>
</svg>
