<svg width="27" height="14" viewBox="0 0 27 14" fill="none" xmlns="http://www.w3.org/2000/svg">
<path d="M13.5068 6.88672C11.9961 6.88672 10.7383 5.54688 10.7314 3.84473C10.7314 2.18359 12.0029 0.857422 13.5068 0.857422C15.0107 0.857422 16.2822 2.16309 16.2822 3.83105C16.2822 5.54688 15.0176 6.88672 13.5068 6.88672ZM5.57715 7.03711C4.26465 7.03711 3.16406 5.86816 3.16406 4.3916C3.15723 2.94238 4.27148 1.79395 5.57715 1.79395C6.88281 1.79395 7.99707 2.92188 7.99707 4.38477C7.99707 5.86816 6.88965 7.03711 5.57715 7.03711ZM21.4229 7.03711C20.1035 7.03711 19.0029 5.86816 19.0029 4.38477C19.0029 2.92188 20.1172 1.79395 21.4229 1.79395C22.7285 1.79395 23.8428 2.94238 23.8359 4.3916C23.8359 5.86816 22.7354 7.03711 21.4229 7.03711ZM1.83789 13.2646C0.880859 13.2646 0.532227 12.8545 0.532227 12.1367C0.532227 10.3115 2.54199 8.07617 5.57715 8.07617C6.78027 8.07617 7.76465 8.4248 8.50977 8.89648C6.92383 10.1543 6.17188 12.2119 6.91016 13.2646H1.83789ZM25.1621 13.2646H20.0898C20.8281 12.2119 20.0762 10.1543 18.4902 8.89648C19.2354 8.4248 20.2197 8.07617 21.4229 8.07617C24.458 8.07617 26.4678 10.3115 26.4678 12.1367C26.4678 12.8545 26.1191 13.2646 25.1621 13.2646ZM9.26855 13.2646C8.10645 13.2646 7.70996 12.9023 7.70996 12.2529C7.70996 10.4961 9.95898 8.08984 13.5068 8.08984C17.0479 8.08984 19.2969 10.4961 19.2969 12.2529C19.2969 12.9023 18.9004 13.2646 17.7383 13.2646H9.26855Z" fill="#C1CDDA"/>
</svg>
