<svg width="13" height="13" viewBox="0 0 13 13" fill="none" xmlns="http://www.w3.org/2000/svg">
<path d="M5.21143 12.1743C4.81787 12.1743 4.48991 12.0177 4.22754 11.7046L0.952148 7.7373C0.837891 7.60612 0.757487 7.47917 0.710938 7.35645C0.664388 7.23372 0.641113 7.10677 0.641113 6.97559C0.641113 6.67513 0.74056 6.42757 0.939453 6.23291C1.14258 6.03402 1.39648 5.93457 1.70117 5.93457C2.03971 5.93457 2.32113 6.0721 2.54541 6.34717L5.18604 9.61621L10.3721 1.42139C10.5033 1.22249 10.6387 1.08285 10.7783 1.00244C10.9222 0.917806 11.0978 0.875488 11.3052 0.875488C11.6099 0.875488 11.8617 0.972819 12.0605 1.16748C12.2594 1.36214 12.3589 1.60758 12.3589 1.90381C12.3589 2.01383 12.3398 2.12809 12.3018 2.24658C12.2637 2.36507 12.2044 2.48779 12.124 2.61475L6.21436 11.6602C5.98161 12.0029 5.6473 12.1743 5.21143 12.1743Z" fill="white"/>
</svg>
