<svg width="12" height="12" viewBox="0 0 12 12" fill="none" xmlns="http://www.w3.org/2000/svg">
<path d="M11.1289 5.52539C10.7656 5.52539 10.4961 5.26172 10.4961 4.89258V4.4707L10.6191 2.63086L9.24805 4.07227L7.56055 5.77148C7.44336 5.90039 7.28516 5.95898 7.11523 5.95898C6.72266 5.95898 6.44141 5.69531 6.44141 5.30273C6.44141 5.12109 6.50586 4.96289 6.62891 4.83984L8.32812 3.14648L9.76953 1.77539L7.91797 1.89844H7.4668C7.10352 1.89844 6.82812 1.63477 6.82812 1.26562C6.82812 0.896484 7.09766 0.626953 7.4668 0.626953H10.7129C11.3867 0.626953 11.7734 1.01367 11.7734 1.6875V4.89258C11.7734 5.25586 11.498 5.52539 11.1289 5.52539ZM4.80078 11.918H1.54883C0.880859 11.918 0.494141 11.5312 0.494141 10.8574V7.65234C0.494141 7.28906 0.769531 7.01953 1.13867 7.01953C1.50195 7.01953 1.77148 7.2832 1.77148 7.65234V8.07422L1.64258 9.91406L3.01367 8.47266L4.70117 6.77344C4.82422 6.64453 4.98242 6.58594 5.15234 6.58594C5.54492 6.58594 5.82617 6.84961 5.82617 7.24219C5.82617 7.42383 5.75586 7.58203 5.63281 7.70508L3.93945 9.39844L2.49219 10.7695L4.34961 10.6465H4.80078C5.16406 10.6465 5.43945 10.9102 5.43945 11.2793C5.43945 11.6484 5.16992 11.918 4.80078 11.918Z" fill="white"/>
</svg>
