<svg width="14" height="12" viewBox="0 0 14 12" fill="none" xmlns="http://www.w3.org/2000/svg">
<path id="Vector 2" d="M1.06982 5.25C0.655611 5.25 0.319824 5.58579 0.319824 6C0.319824 6.41421 0.655611 6.75 1.06982 6.75V5.25ZM13.6002 6.53033C13.893 6.23744 13.893 5.76256 13.6002 5.46967L8.82718 0.696699C8.53429 0.403806 8.05942 0.403806 7.76652 0.696699C7.47363 0.989593 7.47363 1.46447 7.76652 1.75736L12.0092 6L7.76652 10.2426C7.47363 10.5355 7.47363 11.0104 7.76652 11.3033C8.05942 11.5962 8.53429 11.5962 8.82718 11.3033L13.6002 6.53033ZM1.06982 6.75H13.0698V5.25H1.06982V6.75Z" fill="black"/>
</svg>
