<svg width="10" height="10" viewBox="0 0 10 10" fill="none" xmlns="http://www.w3.org/2000/svg">
<path d="M9.46484 3.11914L9.45898 8.99023C9.45898 9.44727 9.1543 9.76367 8.69141 9.76367H2.80859C2.375 9.76367 2.05859 9.43555 2.05859 9.04297C2.05859 8.65039 2.39258 8.33984 2.79688 8.33984H4.92383L7.19141 8.41602L6.14258 7.49023L0.734375 2.07617C0.582031 1.91797 0.494141 1.73047 0.494141 1.54297C0.494141 1.16211 0.845703 0.798828 1.23828 0.798828C1.43164 0.798828 1.61328 0.880859 1.77148 1.0332L7.18555 6.44727L8.12305 7.49609L8.0293 5.31055V3.10156C8.0293 2.69727 8.3457 2.35742 8.73828 2.35742C9.13086 2.35742 9.46484 2.69141 9.46484 3.11914Z" fill="#92A2B3"/>
</svg>
