<svg width="18" height="18" viewBox="0 0 18 18" fill="none" xmlns="http://www.w3.org/2000/svg">
<path d="M4.57617 15.6206C3.22852 15.6206 2.59131 14.9834 2.59131 13.6357V12.0684C2.59131 11.9292 2.55469 11.8267 2.45215 11.7241L1.34619 10.6108C0.394043 9.65869 0.386719 8.76514 1.34619 7.81299L2.45215 6.69971C2.55469 6.59717 2.59131 6.49463 2.59131 6.35547V4.78809C2.59131 3.42578 3.22119 2.80322 4.57617 2.80322H6.14355C6.28271 2.80322 6.38525 2.75928 6.48779 2.66406L7.60107 1.55811C8.55322 0.598633 9.44678 0.591309 10.3989 1.55078L11.5122 2.66406C11.6147 2.7666 11.7173 2.80322 11.8638 2.80322H13.4312C14.7788 2.80322 15.4087 3.44043 15.4087 4.78809V6.35547C15.4087 6.49463 15.4453 6.58984 15.5552 6.69971L16.6611 7.81299C17.6133 8.76514 17.6206 9.65869 16.6611 10.6108L15.5552 11.7241C15.4526 11.8267 15.4087 11.9292 15.4087 12.0684V13.6357C15.4087 14.9834 14.7715 15.6206 13.4312 15.6206H11.8638C11.7173 15.6206 11.6221 15.6572 11.5122 15.7598L10.3989 16.8657C9.44678 17.8179 8.55322 17.8252 7.60107 16.8657L6.48779 15.7598C6.38525 15.6572 6.28271 15.6206 6.14355 15.6206H4.57617ZM8.18701 12.8228C8.46533 12.8228 8.69971 12.6909 8.86084 12.4346L12.2959 7.09521C12.3984 6.93408 12.4863 6.75098 12.4863 6.58252C12.4863 6.19434 12.1494 5.93799 11.7832 5.93799C11.5562 5.93799 11.3511 6.06982 11.1899 6.32617L8.16504 11.1675L6.75146 9.38037C6.56104 9.13867 6.38525 9.05811 6.1582 9.05811C5.78467 9.05811 5.48438 9.3584 5.48438 9.73193C5.48438 9.92236 5.55029 10.0908 5.68213 10.2593L7.47656 12.4419C7.68896 12.7056 7.90869 12.8228 8.18701 12.8228Z" fill="#7B9EC4"/>
</svg>
