<svg width="12" height="7" viewBox="0 0 12 7" fill="none" xmlns="http://www.w3.org/2000/svg">
<path d="M5.76172 6.55078C5.52148 6.55078 5.32227 6.45703 5.12891 6.26953L0.722656 1.75781C0.576172 1.60547 0.494141 1.42383 0.494141 1.20703C0.494141 0.767578 0.845703 0.410156 1.2793 0.410156C1.50195 0.410156 1.70117 0.503906 1.85938 0.662109L5.76758 4.66992L9.66406 0.662109C9.82227 0.503906 10.0273 0.410156 10.2383 0.410156C10.6777 0.410156 11.0293 0.767578 11.0293 1.20703C11.0293 1.42383 10.9531 1.60547 10.8008 1.75781L6.39453 6.26367C6.20703 6.45703 6.00195 6.55078 5.76172 6.55078Z" fill="#92A2B3"/>
</svg>
