<svg width="14" height="13" viewBox="0 0 14 13" fill="none" xmlns="http://www.w3.org/2000/svg">
<path d="M0.820312 12.3594C0.546875 12.0938 0.554688 11.6406 0.820312 11.375L5.82031 6.36719L0.820312 1.36719C0.554688 1.10156 0.554688 0.65625 0.820312 0.382812C1.08594 0.101562 1.54688 0.109375 1.8125 0.382812L6.8125 5.38281L11.8125 0.382812C12.0781 0.109375 12.5312 0.109375 12.8047 0.382812C13.0781 0.648438 13.0703 1.10156 12.8047 1.36719L7.80469 6.36719L12.8047 11.375C13.0703 11.6406 13.0703 12.0859 12.8047 12.3594C12.5391 12.6328 12.0781 12.625 11.8125 12.3594L6.8125 7.35938L1.8125 12.3594C1.54688 12.625 1.09375 12.625 0.820312 12.3594Z" fill="white"/>
</svg>
