<svg width="96" height="96" viewBox="0 0 96 96" fill="none" xmlns="http://www.w3.org/2000/svg">
<g clip-path="url(#clip0_3241_7787)">
<path d="M42 40C45.3137 40 48 37.3137 48 34C48 30.6863 45.3137 28 42 28C38.6863 28 36 30.6863 36 34C36 37.3137 38.6863 40 42 40Z" fill="#007AFF"/>
<path d="M34 60C37.3137 60 40 57.3137 40 54C40 50.6863 37.3137 48 34 48C30.6863 48 28 50.6863 28 54C28 57.3137 30.6863 60 34 60Z" fill="#007AFF"/>
<path d="M60 64C62.2091 64 64 62.2091 64 60C64 57.7909 62.2091 56 60 56C57.7909 56 56 57.7909 56 60C56 62.2091 57.7909 64 60 64Z" fill="#007AFF"/>
<path d="M87.8 43.96C80.64 43.84 73 36.16 77.08 27.08C65.2 31.08 53.96 20.72 56.32 8.84002C28.44 2.96002 8 25.64 8 48C8 70.08 25.92 88 48 88C71.56 88 90.16 67.68 87.8 43.96ZM48 80C30.36 80 16 65.64 16 48C16 34.76 26.92 15.28 48.32 15.92C50 26.08 58.08 34.16 68.28 35.68C68.56 37.12 70.36 45.88 79.96 50.2C78.8 67.44 64.24 80 48 80Z" fill="#007AFF"/>
</g>
<defs>
<clipPath id="clip0_3241_7787">
<rect width="96" height="96" fill="white"/>
</clipPath>
</defs>
</svg>
