<svg width="35" height="35" viewBox="0 0 35 35" fill="none" xmlns="http://www.w3.org/2000/svg">
<path d="M30.1358 0.326172H4.21182C1.8857 0.326172 0 2.21187 0 4.53799V30.462C0 32.7881 1.8857 34.6738 4.21182 34.6738H30.1358C32.462 34.6738 34.3477 32.7881 34.3477 30.462V4.53799C34.3477 2.21187 32.462 0.326172 30.1358 0.326172Z" fill="#007AFF"/>
<path d="M9.06105 23.5358C9.06105 19.0014 15.2283 20.1797 15.2283 18.4859V18.3659C13.9279 18.4564 12.5076 18.5174 10.9043 18.5174H9.00006V15.4328H11.3588C11.9037 15.4328 12.4466 15.4328 12.962 15.4033C12.6001 14.7089 12.3581 13.8315 12.3581 12.6217C12.3581 8.60066 15.4427 6 19.2512 6C22.7273 6 25.328 8.4787 25.328 11.3823C25.328 14.9804 23.3922 17.0971 18.3444 18.004C18.4348 18.2754 18.4958 18.5784 18.4958 18.9109C18.4958 22.6604 12.3286 22.1155 12.3286 23.5063C12.3286 24.0197 13.0545 24.3227 15.1102 24.3227C17.347 24.3227 19.1312 23.7778 21.006 22.7509L22.4263 25.503C19.9162 26.8938 17.6499 27.4073 15.1398 27.4073C11.8742 27.4073 9.06301 26.3194 9.06301 23.5378L9.06105 23.5358ZM16.3771 15.2204C19.7942 14.8584 22.0604 13.8905 22.0604 11.6833C22.0604 10.202 20.9116 9.08263 18.9758 9.08263C16.7391 9.08263 15.6198 10.6859 15.6198 12.3777C15.6198 13.6171 15.9522 14.4945 16.3752 15.2204H16.3771Z" fill="white"/>
</svg>
